<svg viewBox="0 0 80 80" xmlns="http://www.w3.org/2000/svg">
  <defs>
    <linearGradient id="hashGrad" x1="0%" y1="0%" x2="100%" y2="100%">
      <stop offset="0%" stop-color="#60CFFF"/>
      <stop offset="50%" stop-color="#38B6FF"/>
      <stop offset="100%" stop-color="#0070CC"/>
    </linearGradient>
  </defs>
  <g transform="translate(-1862, -805) scale(1)">
    <path fill="url(#hashGrad)" d="M1940.02,842.952L1928.34,842.952L1924.52,858.536L1940.02,858.536L1940.02,870.204L1921.66,870.204L1918.04,885L1903.79,885L1907.32,870.204L1893.22,870.204L1889.61,885L1875.16,885L1878.78,870.204L1870.1,870.204L1870.1,858.536L1881.64,858.536L1885.45,842.952L1870.1,842.952L1870.1,831.285L1888.31,831.285L1890.75,821.33C1890.75,821.33 1893.94,822.992 1897.98,822.275C1903.33,821.324 1905.97,817.885 1905.97,817.885C1905.97,817.885 1905.97,817.885 1905.97,817.887C1905.75,818.739 1907.85,822.107 1912.08,821.447C1918.15,820.501 1920.83,813.559 1920.83,813.559C1920.83,813.559 1923.61,816.394 1928.59,815.471C1934.05,814.458 1936.24,810.701 1936.24,810.701L1931.2,831.285L1940.02,831.285L1940.02,842.952ZM1899.86,842.952L1913.82,842.952L1910.1,858.536L1896.06,858.536L1899.86,842.952Z"/>
  </g>
</svg>