<?xml version="1.0" encoding="UTF-8" standalone="no"?>
<!DOCTYPE svg PUBLIC "-//W3C//DTD SVG 1.1//EN" "http://www.w3.org/Graphics/SVG/1.1/DTD/svg11.dtd">
<svg width="100%" height="100%" viewBox="0 201 3084 657" version="1.1" xmlns="http://www.w3.org/2000/svg" xmlns:xlink="http://www.w3.org/1999/xlink" xml:space="preserve" xmlns:serif="http://www.serif.com/" style="fill-rule:evenodd;clip-rule:evenodd;stroke-linejoin:round;stroke-miterlimit:2;">
  <defs>
    <linearGradient id="hashGrad" x1="1870" y1="810" x2="1941" y2="886" gradientUnits="userSpaceOnUse">
      <stop offset="0%"   stop-color="#60CFFF"/>
      <stop offset="50%"  stop-color="#38B6FF"/>
      <stop offset="100%" stop-color="#0070CC"/>
    </linearGradient>
  </defs>
    <g transform="matrix(1,0,0,1,-5851,-3957)">
        <g>
            <g transform="matrix(5.51196,0,0,5.51196,-285.647,1398.2)">
                <g transform="matrix(1.18103,0,0,0.572613,1180.59,478.47)" fill="#111111">
                    <path d="M78.287,102.474C74.269,94.402 69.045,90.366 62.615,90.366C55.416,90.366 49.79,96.132 45.736,107.664L45.736,51.014L34.414,51.014L34.414,202.369L45.736,202.369L45.736,146.368C45.736,135.268 47.012,126.511 49.563,120.097C52.114,113.682 55.626,110.475 60.099,110.475C64.292,110.475 67.489,113.213 69.691,118.691C71.892,124.169 72.993,132.169 72.993,142.692L72.993,202.369L84.315,202.369L84.315,141.394C84.315,123.52 82.306,110.547 78.287,102.474Z" style="fill-rule:nonzero;"/>
                    <path d="M139.877,182.044L137.676,182.044C135.299,182.044 134.111,179.45 134.111,174.26L134.111,130.583C134.111,117.61 132.154,107.664 128.241,100.745C124.327,93.826 118.771,90.366 111.572,90.366C104.793,90.366 99.307,93.429 95.113,99.555C90.92,105.682 88.544,114.295 87.984,125.394L99.097,125.394C99.516,120.493 100.792,116.565 102.923,113.61C105.055,110.655 107.763,109.177 111.048,109.177C114.752,109.177 117.652,110.943 119.749,114.475C121.846,118.006 122.894,122.871 122.894,129.07L122.894,135.773L109.371,135.773C101.892,135.773 96.196,138.836 92.283,144.962C88.369,151.088 86.412,159.845 86.412,171.233C86.412,181.323 88.229,189.252 91.863,195.018C95.498,200.783 100.32,203.666 106.33,203.666C114.088,203.666 119.994,197.324 124.047,184.639C124.047,190.405 124.816,194.801 126.354,197.828C127.891,200.856 130.407,202.369 133.902,202.369L139.877,202.369L139.877,182.044ZM122.894,153.07L122.894,156.962C122.824,165.611 121.479,172.53 118.858,177.72C116.237,182.909 112.585,185.504 107.903,185.504C104.828,185.504 102.399,184.062 100.617,181.179C98.835,178.296 97.944,174.476 97.944,169.72C97.944,164.242 98.887,160.098 100.774,157.287C102.661,154.476 105.352,153.07 108.846,153.07L122.894,153.07Z" style="fill-rule:nonzero;"/>
                    <path d="M216.301,102.15C212.597,94.294 207.81,90.366 201.939,90.366C197.606,90.366 193.902,92.132 190.826,95.663C187.751,99.195 185.27,104.132 183.383,110.475C181.846,103.7 179.644,98.654 176.779,95.339C173.913,92.024 170.594,90.366 166.82,90.366C160.18,90.51 154.938,95.772 151.094,106.15L149.836,91.663L139.982,91.663L139.982,202.369L151.304,202.369L151.304,143.124C151.304,133.178 152.44,125.25 154.711,119.34C156.983,113.43 160.04,110.475 163.884,110.475C167.588,110.475 170.401,112.961 172.323,117.934C174.245,122.907 175.206,130.295 175.206,140.097L175.206,202.369L186.633,202.369L186.633,142.476C186.633,132.529 187.769,124.709 190.04,119.015C192.312,113.322 195.404,110.475 199.318,110.475C203.022,110.475 205.818,112.997 207.705,118.042C209.592,123.088 210.535,130.439 210.535,140.097L210.535,202.369L221.857,202.369L221.857,139.881C221.857,122.583 220.005,110.006 216.301,102.15Z" style="fill-rule:nonzero;"/>
                    <path d="M267.879,97.177C264.035,92.636 259.667,90.366 254.775,90.366C247.437,90.366 241.636,96.276 237.373,108.096L237.373,51.014L226.051,51.014L226.051,202.369L235.905,202.369L237.268,186.369C239.085,191.702 241.461,195.918 244.397,199.018C247.332,202.117 250.791,203.666 254.775,203.666C259.667,203.666 264.035,201.288 267.879,196.531C271.723,191.774 274.729,185.107 276.895,176.531C279.062,167.954 280.145,158.116 280.145,147.016C280.145,135.34 279.062,125.25 276.895,116.745C274.729,108.24 271.723,101.718 267.879,97.177ZM264.263,173.72C261.362,180.567 257.571,183.99 252.888,183.99C248.206,183.99 244.432,180.531 241.566,173.612C238.701,166.692 237.268,157.755 237.268,146.8C237.268,135.989 238.701,127.196 241.566,120.421C244.432,113.646 248.206,110.258 252.888,110.258C257.571,110.258 261.362,113.682 264.263,120.529C267.163,127.376 268.613,136.205 268.613,147.016C268.613,157.971 267.163,166.873 264.263,173.72Z" style="fill-rule:nonzero;"/>
                    <path d="M331.304,91.663L319.982,91.663L319.982,146.584C319.982,157.971 318.759,166.945 316.313,173.503C313.866,180.062 310.477,183.342 306.144,183.342C302.02,183.342 298.91,180.531 296.814,174.909C294.717,169.287 293.668,161.071 293.668,150.26L293.668,91.663L282.346,91.663L282.346,152.638C282.346,170.512 284.303,183.486 288.217,191.558C292.131,199.63 297.233,203.666 303.523,203.666C310.512,203.666 316.033,198.549 320.087,188.315L321.345,202.369L331.304,202.369L331.304,91.663Z" style="fill-rule:nonzero;"/>
                    <path d="M366.004,91.663L363.488,91.663C359.364,91.663 356.08,93.141 353.633,96.096C351.187,99.051 349.195,103.123 347.658,108.312L346.4,91.663L336.336,91.663L336.336,202.369L347.658,202.369L347.658,146.8C347.658,137.142 348.706,129.178 350.803,122.907C352.9,116.637 356.289,113.502 360.972,113.502L366.004,113.502L366.004,91.663Z" style="fill-rule:nonzero;"/>
                    <path d="M416.743,91.663L406.889,91.663L405.631,108.961C403.814,103.195 401.438,98.654 398.502,95.339C395.567,92.024 392.073,90.366 388.019,90.366C383.197,90.366 378.863,92.708 375.02,97.393C371.176,102.078 368.153,108.673 365.951,117.178C363.75,125.682 362.649,135.484 362.649,146.584C362.649,158.116 363.732,168.098 365.899,176.531C368.066,184.963 371.071,191.45 374.915,195.991C378.759,200.531 383.127,202.802 388.019,202.802C395.777,202.802 401.612,196.747 405.526,184.639L405.526,196.964C405.526,217.577 400.389,227.883 390.116,227.883C386.132,227.883 382.882,226.19 380.366,222.802C377.85,219.415 376.243,214.622 375.544,208.423L364.012,208.423C364.501,220.676 367.017,230.154 371.56,236.857C376.103,243.559 382.008,246.911 389.277,246.911C398.642,246.911 405.561,242.622 410.034,234.046C414.507,225.469 416.743,213.396 416.743,197.828L416.743,91.663ZM401.228,173.071C398.363,179.774 394.589,183.125 389.906,183.125C385.223,183.125 381.449,179.738 378.584,172.963C375.718,166.188 374.286,157.395 374.286,146.584C374.286,135.773 375.718,126.98 378.584,120.205C381.449,113.43 385.223,110.042 389.906,110.042C394.589,110.042 398.363,113.466 401.228,120.313C404.093,127.16 405.526,136.061 405.526,147.016C405.526,157.683 404.093,166.368 401.228,173.071Z" style="fill-rule:nonzero;"/>
                </g>
                <g transform="matrix(1.26131,0,0,1.26131,-1245.42,-521.796)">
                    <path fill="url(#hashGrad)" d="M1940.02,842.952L1928.34,842.952L1924.52,858.536L1940.02,858.536L1940.02,870.204L1921.66,870.204L1918.04,885L1903.79,885L1907.32,870.204L1893.22,870.204L1889.61,885L1875.16,885L1878.78,870.204L1870.1,870.204L1870.1,858.536L1881.64,858.536L1885.45,842.952L1870.1,842.952L1870.1,831.285L1888.31,831.285L1890.75,821.33C1890.75,821.33 1893.94,822.992 1897.98,822.275C1903.33,821.324 1905.97,817.885 1905.97,817.885C1905.97,817.885 1905.97,817.885 1905.97,817.887C1905.75,818.739 1907.85,822.107 1912.08,821.447C1918.15,820.501 1920.83,813.559 1920.83,813.559C1920.83,813.559 1923.61,816.394 1928.59,815.471C1934.05,814.458 1936.24,810.701 1936.24,810.701L1931.2,831.285L1940.02,831.285L1940.02,842.952ZM1899.86,842.952L1913.82,842.952L1910.1,858.536L1896.06,858.536L1899.86,842.952Z"/>
                </g>
            </g>
        </g>
    </g>
</svg>
